<?xml version="1.0" standalone="no"?>
<!DOCTYPE svg PUBLIC "-//W3C//DTD SVG 1.1//EN" "http://www.w3.org/Graphics/SVG/1.1/DTD/svg11.dtd" >
<svg xmlns="http://www.w3.org/2000/svg" xmlns:xlink="http://www.w3.org/1999/xlink" version="1.1">
<metadata>
Created by FontForge 20170924 at Tue Aug 29 10:39:50 2006
 By www-data
Copyrighted (c) 1981, 1997 by and the property of Linotype-Hell AG and/or its subsidiaries. All Rights Reserved. All Cyrillic characters designed by DoubleAlex. Helvetica is a registered Trademark of Linotype-Hell AG and/or its subsidiaries.
</metadata>
<defs>
<font id="HelveticaNeueCyr-UltraLightItalic" horiz-adv-x="500" >
  <font-face 
    font-family="HelveticaNeueCyr"
    font-weight="200"
    font-style="italic"
    font-stretch="normal"
    units-per-em="1000"
    panose-1="2 0 5 6 2 0 0 9 0 4"
    ascent="800"
    descent="-200"
    x-height="512"
    cap-height="712"
    bbox="-161 -219 1004 909"
    underline-thickness="50"
    underline-position="-200"
    slope="-12"
    unicode-range="U+0020-E001"
  />
<missing-glyph horiz-adv-x="1000" 
 />
    <glyph glyph-name=".notdef" horiz-adv-x="1000" 
 />
    <glyph glyph-name=".null" horiz-adv-x="0" 
 />
    <glyph glyph-name="nonmarkingreturn" horiz-adv-x="333" 
 />
    <glyph glyph-name="space" unicode=" " horiz-adv-x="278" 
 />
    <glyph glyph-name="exclam" unicode="!" horiz-adv-x="185" 
d="M52 97l-20 -97h-21l21 97h20zM184 712l-114 -532h-21l114 532h21z" />
    <glyph glyph-name="quotedbl" unicode="&#x22;" horiz-adv-x="278" 
d="M115 441h-14l48 239h22zM228 441h-14l48 239h22z" />
    <glyph glyph-name="numbersign" unicode="#" horiz-adv-x="556" 
d="M127 0h-18l41 222h-129v18h132l37 200h-129v18h133l41 222h18l-42 -222h174l42 222h17l-41 -222h129v-18h-132l-37 -200h129v-18h-132l-42 -222h-18l42 222h-174zM345 240l37 200h-173l-38 -200h174z" />
    <glyph glyph-name="dollar" unicode="$" horiz-adv-x="556" 
d="M385 770l-16 -78q186 -23 186 -185v-14h-20v13q0 78 -44 117.5t-126 49.5l-66 -313q42 -11 72.5 -23.5t62 -33.5t48 -53t16.5 -74q0 -94 -72 -143.5t-172 -49.5q-1 0 -33 2l-20 -92h-20l20 93q-91 7 -146 59.5t-55 140.5q0 11 1 20h20q-1 -9 -1 -19q0 -79 47.5 -126
t136.5 -58l72 344q-41 14 -65 24.5t-54.5 30t-45.5 47.5t-15 65q0 80 63 130t164 50q3 0 11 -0.5t14 -0.5l17 77h20zM280 367l65 307q-13 1 -26 1q-90 0 -146.5 -45t-56.5 -116q0 -52 37 -85t127 -62zM295 341l-70 -339q30 -2 33 -2q89 0 154.5 45t65.5 130q0 38 -15 67
t-45.5 47.5t-55.5 28.5t-67 23z" />
    <glyph glyph-name="percent" unicode="%" horiz-adv-x="685" 
d="M617 721l-525 -751h-24l525 751h24zM355 575q0 -86 -50.5 -146t-123.5 -60q-59 0 -95 36.5t-36 96.5q0 84 48 143t129 59q58 0 93 -35.5t35 -93.5zM643 194q0 -80 -48 -142.5t-126 -62.5q-60 0 -95.5 36t-35.5 97q0 82 48 142t128 60q59 0 94 -35.5t35 -94.5zM222 686
q-65 0 -109.5 -53t-44.5 -130q0 -53 30.5 -84.5t82.5 -31.5q70 0 112.5 57.5t42.5 130.5q0 52 -31 81.5t-83 29.5zM512 305q-66 0 -110.5 -53t-44.5 -132q0 -51 31 -82t81 -31q64 0 109.5 54.5t45.5 131.5q0 52 -30 82t-82 30z" />
    <glyph glyph-name="ampersand" unicode="&#x26;" horiz-adv-x="574" 
d="M479 273q-17 -78 -54 -143l86 -130h-24l-74 111q-87 -128 -217 -128q-82 0 -134 48.5t-52 124.5q0 45 15 80t52.5 64t59.5 41t76 38l18 9q-7 12 -24 39.5t-25 43t-16 41t-8 49.5q0 62 42 101.5t108 39.5q63 0 102.5 -35t39.5 -91q0 -30 -13.5 -57.5t-29 -45t-48 -38.5
t-48 -29t-51.5 -26l153 -232q35 64 45 125h21zM249 396q182 83 182 179q0 48 -34 78.5t-89 30.5q-57 0 -93.5 -34t-36.5 -87q0 -59 71 -167zM242 371q-9 -5 -35.5 -17.5t-38 -18.5t-34.5 -19t-34 -23t-27 -25.5t-23.5 -31t-13.5 -36t-6 -43.5q0 -69 47 -112.5t121 -43.5
q63 0 117.5 35.5t85.5 93.5z" />
    <glyph glyph-name="quotesingle" unicode="'" horiz-adv-x="167" 
d="M116 441h-14l48 239h22z" />
    <glyph glyph-name="parenleft" unicode="(" horiz-adv-x="222" 
d="M302 719q-221 -275 -221 -621q0 -145 42 -277h-19q-42 121 -42 282q0 164 57.5 332t160.5 284h22z" />
    <glyph glyph-name="parenright" unicode=")" horiz-adv-x="222" 
d="M103 719q41 -120 41 -277q0 -173 -56 -332.5t-162 -288.5h-24q108 127 165.5 289t57.5 332q0 145 -42 277h20z" />
    <glyph glyph-name="asterisk" unicode="*" horiz-adv-x="352" 
d="M254 727l-30 -143l130 47l6 -18l-131 -47l78 -103l-16 -12l-82 110l-100 -103l-15 13l98 99l-110 65l12 16l111 -67l30 143h19z" />
    <glyph glyph-name="plus" unicode="+" horiz-adv-x="600" 
d="M33 262h242v242h20v-242h242v-20h-242v-242h-20v242h-242v20z" />
    <glyph glyph-name="comma" unicode="," horiz-adv-x="278" 
d="M110 98l-24 -116q-18 -82 -74 -101l5 24q13 7 22 17t15 25t8.5 24t6.5 29l21 98h20z" />
    <glyph glyph-name="hyphen" unicode="-" horiz-adv-x="333" 
d="M246 276l-3 -18h-184l4 18h183z" />
    <glyph glyph-name="period" unicode="." horiz-adv-x="278" 
d="M111 98l-21 -98h-22l22 98h21z" />
    <glyph glyph-name="slash" unicode="/" horiz-adv-x="333" 
d="M388 730l-419 -747h-21l422 747h18z" />
    <glyph glyph-name="zero" unicode="0" horiz-adv-x="556" 
d="M534 459q0 -57 -10.5 -119t-34.5 -126t-58.5 -114.5t-87.5 -83t-116 -32.5q-104 0 -156.5 66.5t-52.5 171.5q0 73 18 151.5t53.5 152t98 121t141.5 47.5q103 0 154 -64t51 -171zM330 676q-51 0 -95 -21.5t-75 -59t-55 -84t-38.5 -98.5t-21.5 -101.5t-7 -94.5
q0 -94 47.5 -154.5t140.5 -60.5q60 0 110 31.5t82 80.5t54.5 111t32.5 120.5t10 110.5q0 100 -45 160t-140 60z" />
    <glyph glyph-name="one" unicode="1" horiz-adv-x="556" 
d="M390 679l-146 -679h-20l140 657q-41 -46 -99.5 -81t-113.5 -46l5 22q59 15 106 46t102 81h26z" />
    <glyph glyph-name="two" unicode="2" horiz-adv-x="556" 
d="M437 19l-4 -19h-453q7 78 67 141q18 19 38.5 36t50 35t43.5 26.5t54 29t47 24.5q105 55 143 87q77 65 78 147q0 68 -47.5 108.5t-127.5 40.5q-92 0 -147.5 -55t-64.5 -156h-20q9 109 70 169.5t163 60.5q89 0 142 -46.5t53 -123.5q0 -31 -9 -59t-30 -52.5t-38 -41
t-51.5 -37.5t-49.5 -29.5t-53 -28.5q-10 -5 -39 -20.5t-42 -22.5t-38 -21.5t-40.5 -25.5t-34.5 -26.5t-34 -30.5q-49 -49 -60 -110h434z" />
    <glyph glyph-name="three" unicode="3" horiz-adv-x="556" 
d="M44 229q-6 -30 -6 -53q0 -80 52.5 -127.5t140.5 -47.5q99 0 163.5 56.5t64.5 142.5q0 58 -35.5 96.5t-92.5 46.5q-27 4 -88 5l4 20q22 -2 45 -2q104 0 161.5 41.5t57.5 117.5q0 67 -49.5 108.5t-129.5 41.5q-84 0 -140.5 -52t-68.5 -140h-21q14 95 75 153t156 58
q89 0 143.5 -46.5t54.5 -121.5q0 -73 -47 -118t-132 -54q59 -13 93.5 -51.5t34.5 -98.5q0 -62 -34 -116q-64 -104 -217 -104q-98 0 -154.5 52.5t-56.5 143.5q0 23 5 49h21z" />
    <glyph glyph-name="four" unicode="4" horiz-adv-x="556" 
d="M492 196l-4 -18h-123l-37 -178h-21l38 178h-342l5 22l438 481h25l-101 -485h122zM349 196l98 461l-419 -461h321z" />
    <glyph glyph-name="five" unicode="5" horiz-adv-x="556" 
d="M546 679l-6 -19h-336l-110 -291q39 45 83 66t105 21q94 0 149.5 -53t55.5 -142q0 -115 -72 -196t-187 -81q-93 0 -147.5 49t-54.5 134q0 18 4 46h20q-5 -27 -5 -45q0 -77 50 -122t135 -45q101 0 169 74.5t68 186.5q0 81 -50 128.5t-136 47.5q-112 0 -188 -94h-27l125 335
h355z" />
    <glyph glyph-name="six" unicode="6" horiz-adv-x="556" 
d="M535 513h-20v3q0 76 -44 117.5t-125 41.5q-42 0 -77.5 -13t-61.5 -32.5t-48 -51.5t-36 -61.5t-27.5 -71t-20.5 -71.5t-15 -71q28 70 86 110.5t133 40.5q97 0 155.5 -56.5t58.5 -148.5q0 -115 -69.5 -190t-175.5 -75q-100 0 -157 61t-57 169q0 81 26 181t64 165
q78 134 222 134q90 0 139.5 -47t49.5 -131v-3zM282 435q-99 0 -163.5 -66.5t-64.5 -166.5q0 -90 53.5 -145t140.5 -55q101 0 163.5 71.5t62.5 175.5q0 84 -54 135t-138 51z" />
    <glyph glyph-name="seven" unicode="7" horiz-adv-x="556" 
d="M552 679l-6 -20q-131 -126 -245 -301.5t-173 -357.5h-22q57 177 169 355t248 305h-398l3 19h424z" />
    <glyph glyph-name="eight" unicode="8" horiz-adv-x="556" 
d="M349 359q142 -34 142 -169q0 -100 -70.5 -153t-175.5 -53q-110 0 -171.5 49t-61.5 137q0 87 56 139t159 59q-122 37 -122 148q0 89 64.5 133.5t158.5 44.5q97 0 151 -42t54 -116q0 -73 -50 -121t-134 -56zM514 535q0 68 -50 104.5t-144 36.5q-90 0 -143 -43.5t-53 -117.5
q0 -66 50.5 -104t137.5 -38q84 0 143 41t59 121zM471 192q0 76 -56 119.5t-153 43.5q-106 0 -168 -49.5t-62 -135.5q0 -80 57 -124t160 -44q97 0 159.5 48t62.5 142z" />
    <glyph glyph-name="nine" unicode="9" horiz-adv-x="556" 
d="M15 164h21v-7q0 -73 44.5 -114.5t123.5 -41.5q57 0 103 24.5t75 60.5t52.5 90t35 98t22.5 100q-32 -72 -88.5 -112t-133.5 -40q-96 0 -154 57t-58 152q0 110 68 186.5t178 76.5q102 0 157.5 -61.5t55.5 -167.5q0 -105 -37.5 -226.5t-101.5 -187.5q-66 -68 -175 -68
q-90 0 -139 46.5t-49 131.5v3zM302 674q-100 0 -162.5 -71t-62.5 -173q0 -85 53.5 -137t141.5 -52q96 0 160.5 69.5t64.5 167.5q0 89 -53 142.5t-142 53.5z" />
    <glyph glyph-name="colon" unicode=":" horiz-adv-x="278" 
d="M110 98l-20 -98h-22l22 98h20zM194 489l-21 -98h-21l21 98h21z" />
    <glyph glyph-name="semicolon" unicode=";" horiz-adv-x="278" 
d="M194 489l-21 -98h-20l20 98h21zM110 98l-24 -116q-18 -82 -74 -101l5 24q13 7 22 17t15 25t8.5 24t6.5 29l21 98h20z" />
    <glyph glyph-name="less" unicode="&#x3c;" horiz-adv-x="600" 
d="M37 244v19l482 207v-19l-461 -197l461 -195v-19z" />
    <glyph glyph-name="equal" unicode="=" horiz-adv-x="600" 
d="M36 359h498v-19h-498v19zM36 166h498v-19h-498v19z" />
    <glyph glyph-name="greater" unicode="&#x3e;" horiz-adv-x="600" 
d="M548 244l-482 -204v19l461 195l-461 197v19l482 -207v-19z" />
    <glyph glyph-name="question" unicode="?" 
d="M205 97l-20 -97h-21l21 97h20zM223 180h-20q6 48 15.5 78.5t31 55t43.5 40t68 43.5q53 32 81.5 71.5t28.5 96.5q0 66 -45 104.5t-122 38.5q-179 0 -200 -214h-20q11 114 67.5 173.5t154.5 59.5q85 0 135 -44.5t50 -119.5q0 -64 -33.5 -107t-96.5 -81q-38 -23 -53 -33.5
t-36 -33t-31.5 -52.5t-17.5 -76z" />
    <glyph glyph-name="at" unicode="@" horiz-adv-x="800" 
d="M713 104l11 -15q-77 -53 -147.5 -77.5t-159.5 -24.5q-166 0 -278.5 97t-112.5 257q0 167 120 274.5t292 107.5q140 0 236.5 -78.5t96.5 -213.5q0 -59 -22.5 -117t-70 -100t-107.5 -42q-30 0 -50.5 17t-20.5 46q0 13 12 54q-27 -55 -63.5 -86t-92.5 -31q-62 0 -97 42
t-35 104q0 86 56.5 161.5t139.5 75.5q59 0 92.5 -36t33.5 -94v-6l38 124h20l-60 -192q-27 -93 -27 -116t16.5 -34.5t40.5 -11.5q53 0 95 41t62.5 95.5t20.5 105.5q0 127 -91.5 201t-223.5 74q-162 0 -277.5 -103.5t-115.5 -261.5q0 -153 110 -245t263 -92q85 0 153.5 24.5
t142.5 75.5zM533 417q0 53 -30 87t-83 34q-74 0 -125.5 -71t-51.5 -148q0 -56 30.5 -92.5t84.5 -36.5q61 0 103 49.5t62 116.5q10 33 10 61z" />
    <glyph glyph-name="A" unicode="A" horiz-adv-x="574" 
d="M386 712l134 -712h-22l-44 235h-362l-145 -235h-25l444 712h20zM371 688l-266 -434h345z" />
    <glyph glyph-name="B" unicode="B" horiz-adv-x="611" 
d="M144 712h241q103 0 159 -35t56 -122q0 -75 -51 -125.5t-136 -60.5q147 -19 147 -152q0 -69 -41 -126t-106 -76q-55 -15 -144 -15h-276zM161 694l-68 -316h250q42 0 80 8.5t75 27t59 55t22 86.5q0 36 -11.5 62t-29.5 40.5t-45.5 23t-53 11t-59.5 2.5h-219zM89 359
l-71 -340h234q105 0 155 15q58 17 95 67.5t37 114.5q0 37 -12.5 64t-31 42t-47.5 23.5t-55.5 11t-61.5 2.5h-242z" />
    <glyph glyph-name="C" unicode="C" horiz-adv-x="685" 
d="M646 251q-29 -119 -123 -193.5t-216 -74.5q-125 0 -199 79t-74 212q0 85 26 165.5t73.5 144.5t122 103t163.5 39q116 0 187.5 -62t76.5 -167h-21q-8 99 -72.5 154.5t-172.5 55.5q-85 0 -155 -37t-114.5 -99t-68.5 -139t-24 -159q0 -123 69 -197.5t183 -74.5
q112 0 197.5 67t120.5 183h21z" />
    <glyph glyph-name="D" unicode="D" horiz-adv-x="667" 
d="M146 712h221q267 0 267 -275q0 -176 -101 -306q-58 -74 -127 -102.5t-168 -28.5h-241zM162 693l-140 -674h192q89 0 146.5 13.5t112.5 62.5q64 56 102 148.5t38 193.5q0 132 -62.5 194t-188.5 62h-200z" />
    <glyph glyph-name="E" unicode="E" horiz-adv-x="519" 
d="M598 712l-4 -19h-432l-67 -313h404l-3 -19h-404l-73 -342h449l-4 -19h-470l151 712h453z" />
    <glyph glyph-name="F" unicode="F" horiz-adv-x="481" 
d="M583 712l-4 -19h-418l-67 -313h379l-4 -19h-379l-76 -361h-21l150 712h440z" />
    <glyph glyph-name="G" unicode="G" horiz-adv-x="722" 
d="M679 336l-71 -336h-18l22 108q2 9 4.5 19t7.5 31t11 43q-41 -102 -121.5 -159t-193.5 -57q-136 0 -211 80.5t-75 218.5q0 86 26.5 165.5t74.5 142t122 100.5t163 38q119 0 192 -62.5t77 -169.5h-19q-9 102 -74 157.5t-175 55.5q-157 0 -261.5 -122.5t-104.5 -307.5
q0 -125 70 -201t196 -76q128 0 217 84t111 192q7 31 8 38h-277l4 18h295z" />
    <glyph glyph-name="H" unicode="H" horiz-adv-x="648" 
d="M663 712l-152 -712h-21l78 362h-478l-77 -362h-21l152 712h21l-70 -331h477l70 331h21z" />
    <glyph glyph-name="I" unicode="I" horiz-adv-x="148" 
d="M164 712l-151 -712h-21l152 712h20z" />
    <glyph glyph-name="J" unicode="J" horiz-adv-x="463" 
d="M482 712l-110 -518q-22 -103 -72 -155.5t-149 -52.5q-82 0 -126 39.5t-44 112.5q0 38 10 82h20q-10 -53 -10 -83q0 -64 39 -98.5t112 -34.5q92 0 136.5 51t64.5 146l108 511h21z" />
    <glyph glyph-name="K" unicode="K" horiz-adv-x="593" 
d="M664 712l-398 -305l293 -407h-24l-285 395l-181 -137l-54 -258h-21l149 712h20l-89 -427l558 427h32z" />
    <glyph glyph-name="L" unicode="L" horiz-adv-x="481" 
d="M166 712l-148 -693h413l-5 -19h-433l152 712h21z" />
    <glyph glyph-name="M" unicode="M" horiz-adv-x="796" 
d="M814 712l-152 -712h-21l149 687l-450 -687h-25l-158 687l-144 -687h-21l151 712h29l159 -693l453 693h30z" />
    <glyph glyph-name="N" unicode="N" horiz-adv-x="667" 
d="M682 712l-151 -712h-24l-349 692l-144 -692h-22l151 712h27l346 -690l145 690h21z" />
    <glyph glyph-name="O" unicode="O" horiz-adv-x="722" 
d="M699 442q0 -117 -42.5 -219.5t-131.5 -171t-208 -68.5q-129 0 -206 80.5t-77 215.5q0 86 25 166t72 144t120.5 102.5t163.5 38.5q129 0 206.5 -79t77.5 -209zM411 711q-85 0 -154.5 -37.5t-112.5 -99.5t-66 -138t-23 -156q0 -127 72 -202.5t192 -75.5q85 0 155 38.5
t113 102t66.5 140.5t23.5 159q0 123 -71.5 196t-194.5 73z" />
    <glyph glyph-name="P" unicode="P" horiz-adv-x="574" 
d="M143 712h223q84 0 127 -13q49 -14 77 -56t28 -101q0 -86 -56 -147q-29 -31 -72 -47t-73.5 -18t-86.5 -2h-227l-69 -328h-22zM161 692l-74 -345h257q57 0 89 7.5t62 26.5q37 23 59.5 68t22.5 95q0 61 -35 100q-24 28 -62 38t-116 10h-203z" />
    <glyph glyph-name="Q" unicode="Q" horiz-adv-x="722" 
d="M631 -33l-14 -15l-100 92q-88 -61 -198 -61q-132 0 -208.5 82t-76.5 214q0 84 25 164t71 144.5t119 103.5t162 39q133 0 210 -78.5t77 -212.5q0 -113 -45.5 -218.5t-119.5 -165.5zM406 170l113 -102q71 56 115 159.5t44 212.5q0 124 -72 197.5t-193 73.5
q-111 0 -194.5 -63.5t-123.5 -159t-40 -204.5q0 -131 72 -206.5t197 -75.5q101 0 178 56l-109 99z" />
    <glyph glyph-name="R" unicode="R" horiz-adv-x="593" 
d="M143 712h234q36 0 65 -3.5t60 -14t51.5 -28.5t33.5 -49.5t13 -73.5q0 -95 -61.5 -147t-157.5 -58q67 -10 92.5 -46t25.5 -105q0 -18 -1.5 -54t-1.5 -54q0 -41 9 -79h-20q-10 39 -10 75q0 19 2 56t2 55q0 48 -12.5 78t-41.5 44t-60 18.5t-82 4.5h-198l-71 -331h-21z
M161 693l-73 -342h239q33 0 63 3.5t66 15.5t62 32t43.5 56t17.5 83q0 48 -17.5 79.5t-49.5 46.5t-64.5 20.5t-75.5 5.5h-211z" />
    <glyph glyph-name="S" unicode="S" horiz-adv-x="611" 
d="M600 509h-21v11q0 99 -57.5 141t-162.5 42q-58 0 -106.5 -14.5t-84 -54t-35.5 -99.5q0 -38 13.5 -65.5t42 -45.5t51.5 -27t64 -21q11 -3 40.5 -11.5t42.5 -12.5t38 -13.5t36.5 -18t29 -22.5t25.5 -29t14 -36.5t6 -47.5q0 -70 -40.5 -117t-97 -65.5t-125.5 -18.5
q-125 0 -192.5 58.5t-67.5 167.5q0 14 1 27h20q-1 -12 -1 -23q0 -109 64 -160.5t179 -51.5q61 0 113 16.5t89.5 59t37.5 106.5q0 26 -6 47t-21 37t-28 27t-38 21t-39 15t-44.5 13.5t-40.5 11.5q-45 14 -70 24.5t-56.5 30.5t-46 50t-14.5 72q0 87 66 138t179 51
q243 0 243 -194v-19z" />
    <glyph glyph-name="T" unicode="T" 
d="M597 712l-3 -19h-253l-146 -693h-21l146 693h-263l5 19h535z" />
    <glyph glyph-name="U" unicode="U" horiz-adv-x="648" 
d="M669 712l-102 -480q-53 -249 -295 -249q-100 0 -167.5 51t-67.5 148q0 43 13 105l91 425h20l-92 -437q-12 -59 -12 -90q0 -85 57.5 -134.5t156.5 -49.5q119 0 185 61t91 178l101 472h21z" />
    <glyph glyph-name="V" unicode="V" horiz-adv-x="556" 
d="M648 712l-422 -712h-28l-126 712h21l121 -693l411 693h23z" />
    <glyph glyph-name="W" unicode="W" horiz-adv-x="889" 
d="M974 712l-361 -712h-26l-64 694l-353 -694h-26l-66 712h22l61 -690l350 690h30l63 -690l348 690h22z" />
    <glyph glyph-name="X" unicode="X" horiz-adv-x="519" 
d="M611 712l-332 -347l193 -365h-23l-185 349l-334 -349h-29l353 368l-181 344h24l172 -331l314 331h28z" />
    <glyph glyph-name="Y" unicode="Y" horiz-adv-x="519" 
d="M627 712l-368 -416l-62 -296h-22l64 302l-193 410h23l184 -395l347 395h27z" />
    <glyph glyph-name="Z" unicode="Z" 
d="M573 712l-5 -26l-619 -667h507l-4 -19h-528l6 28l618 665h-472l5 19h492z" />
    <glyph glyph-name="bracketleft" unicode="[" horiz-adv-x="222" 
d="M290 712l-3 -19h-98l-182 -847h96l-4 -19h-116l191 885h116z" />
    <glyph glyph-name="backslash" unicode="\" horiz-adv-x="333" 
d="M388 -17h-21l-419 747h18z" />
    <glyph glyph-name="bracketright" unicode="]" horiz-adv-x="222" 
d="M209 712l-192 -887h-116l4 20h97l183 847h-96l4 20h116z" />
    <glyph glyph-name="asciicircum" unicode="^" horiz-adv-x="600" 
d="M126 273l162 407h25l162 -407h-20l-155 392l-154 -392h-20z" />
    <glyph glyph-name="underscore" unicode="_" 
d="M0 -125v50h500v-50h-500z" />
    <glyph glyph-name="grave" unicode="`" horiz-adv-x="130" 
d="M138 599h-22l-117 140h25z" />
    <glyph glyph-name="a" unicode="a" horiz-adv-x="481" 
d="M60 366q43 159 206 159q76 0 117.5 -32t41.5 -90q0 -24 -14 -86l-34 -151q-21 -93 -21 -116q0 -33 29 -33q10 0 36 5l-3 -19q-28 -4 -37 -4q-25 0 -34.5 13.5t-9.5 39.5q0 15 11 60q-71 -127 -210 -127q-72 0 -114 36.5t-42 98.5q0 36 11.5 63.5t31.5 44t45 28t55.5 16.5
t59 7.5t59.5 4.5q15 1 23 1q1 0 13 0.5t15.5 1t15.5 1.5t17.5 2.5t15.5 3.5t16 4.5t12.5 6.5t10.5 9q22 24 22 86q0 106 -141 106q-75 0 -119.5 -33.5t-64.5 -106.5h-20zM389 298q-26 -24 -102 -30q-12 -1 -48 -2.5t-55.5 -3.5t-52 -7t-51.5 -15t-39 -25t-29.5 -39t-9.5 -56
q0 -55 35.5 -86t98.5 -31q90 0 147.5 53t80.5 143z" />
    <glyph glyph-name="b" unicode="b" horiz-adv-x="537" 
d="M157 712l-72 -340q32 71 87.5 113t130.5 42q83 0 132 -55t49 -149q0 -80 -29 -155.5t-91 -129.5t-144 -54q-80 0 -125.5 47t-53.5 127l-33 -158h-21l151 712h19zM465 322q0 87 -43.5 137t-119.5 50t-134.5 -51.5t-85 -123t-26.5 -145.5q0 -86 44.5 -137t118.5 -51
q75 0 133.5 52t85.5 124t27 145z" />
    <glyph glyph-name="c" unicode="c" 
d="M437 163q-27 -82 -87.5 -129.5t-146.5 -47.5q-92 0 -140 57t-48 151q0 85 30 158.5t94 123t150 49.5q83 0 130 -44t47 -122h-19q0 69 -42.5 108.5t-117.5 39.5q-116 0 -183.5 -94t-67.5 -215q0 -93 44.5 -143.5t126.5 -50.5q148 0 209 159h21z" />
    <glyph glyph-name="d" unicode="d" horiz-adv-x="537" 
d="M551 712l-151 -712h-20l35 153q-29 -76 -85 -122.5t-135 -46.5q-86 0 -134.5 52.5t-48.5 145.5q0 83 29.5 159.5t93.5 131t149 54.5q80 0 124.5 -44.5t49.5 -122.5l73 352h20zM283 509q-79 0 -138 -51.5t-86.5 -123.5t-27.5 -149q0 -88 43.5 -136t123.5 -48
q58 0 107 33.5t78 85.5t45 110t16 112q0 76 -43 121.5t-118 45.5z" />
    <glyph glyph-name="e" unicode="e" 
d="M430 169q-26 -89 -84.5 -137t-141.5 -48q-93 0 -144.5 57.5t-51.5 161.5q0 138 74.5 229.5t187.5 91.5q88 0 137.5 -53.5t49.5 -148.5q0 -26 -5 -62h-419q-5 -29 -5 -55q0 -95 46 -149t128 -54q153 0 207 167h21zM36 279h398q4 24 4 41q0 88 -44.5 137t-124.5 49
q-87 0 -150 -61.5t-83 -165.5z" />
    <glyph glyph-name="f" unicode="f" horiz-adv-x="204" 
d="M250 512l-4 -19h-111l-105 -493h-20l105 493h-88l3 19h90l15 68q15 70 42.5 102t91.5 32q21 0 39 -3l-3 -19q-17 3 -37 3q-31 0 -52 -8.5t-33 -29.5t-17.5 -38.5t-13.5 -52.5l-12 -54h110z" />
    <glyph glyph-name="g" unicode="g" horiz-adv-x="519" 
d="M498 512l-100 -472q-24 -112 -76.5 -170t-159.5 -58q-78 0 -127.5 33.5t-49.5 109.5v16h21q0 -4 -0.5 -8t-0.5 -6q0 -127 157 -127q57 0 97.5 18t64.5 54.5t37 73.5t24 93l17 84q-30 -58 -79 -92t-113 -34q-88 0 -139 55.5t-51 150.5q0 124 71 207.5t177 83.5
q80 0 128 -45.5t51 -118.5l31 152h20zM270 506q-99 0 -164.5 -78.5t-65.5 -196.5q0 -86 46 -135.5t126 -49.5q69 0 121.5 46t76.5 110t24 132q0 79 -43 125.5t-121 46.5z" />
    <glyph glyph-name="h" unicode="h" 
d="M153 712l-69 -327q74 139 214 139q69 0 111.5 -36.5t42.5 -96.5q0 -31 -16 -104l-62 -287h-20l62 292q15 74 15 102q0 51 -36.5 81t-98.5 30q-185 0 -238 -245l-56 -260h-19l151 712h19z" />
    <glyph glyph-name="i" unicode="i" horiz-adv-x="130" 
d="M112 512l-109 -512h-20l108 512h21zM155 712l-21 -102h-21l21 102h21z" />
    <glyph glyph-name="j" unicode="j" horiz-adv-x="130" 
d="M111 512l-116 -552q-8 -38 -14 -57t-19 -41t-35.5 -31t-56.5 -9q-1 0 -31 2l3 20q23 -3 30 -3q48 0 68.5 26t31.5 80l119 565h20zM154 712l-21 -102h-21l21 102h21z" />
    <glyph glyph-name="k" unicode="k" horiz-adv-x="444" 
d="M156 712l-106 -494l385 294h31l-279 -213l211 -299h-25l-201 288l-127 -97l-41 -191h-19l151 712h20z" />
    <glyph glyph-name="l" unicode="l" horiz-adv-x="130" 
d="M152 712l-151 -712h-20l151 712h20z" />
    <glyph glyph-name="m" unicode="m" horiz-adv-x="778" 
d="M115 512l-25 -120q71 133 183 133q58 0 93 -33.5t35 -88.5q0 -2 -0.5 -8.5t-0.5 -10.5q65 140 185 140q62 0 101.5 -35.5t39.5 -91.5q0 -28 -13 -88l-66 -309h-21l69 321q10 49 10 77q0 49 -34 78.5t-90 29.5q-70 0 -119 -54t-71 -154l-64 -298h-20l66 314q10 44 10 80
q0 52 -30 82t-82 30q-45 0 -81.5 -21.5t-60.5 -58t-39.5 -74.5t-24.5 -81l-59 -271h-20l109 512h20z" />
    <glyph glyph-name="n" unicode="n" 
d="M113 512l-26 -123q78 135 212 135q67 0 108 -37t41 -103q0 -22 -16 -99l-60 -285h-21l63 294q14 70 14 96q0 53 -35.5 84.5t-96.5 31.5q-53 0 -96.5 -23t-70 -59.5t-42.5 -72t-23 -70.5l-59 -281h-21l109 512h20z" />
    <glyph glyph-name="o" unicode="o" horiz-adv-x="519" 
d="M472 327q0 -82 -27.5 -158t-90 -130t-147.5 -54q-94 0 -145.5 55t-51.5 155q0 61 17.5 119.5t50 106t85.5 76.5t118 29q89 0 140 -54.5t51 -144.5zM279 507q-79 0 -137.5 -48t-85 -117.5t-26.5 -147.5q0 -91 46.5 -141t129.5 -50q61 0 109.5 30t77.5 79t44 104.5
t15 112.5q0 81 -46.5 129.5t-126.5 48.5z" />
    <glyph glyph-name="p" unicode="p" horiz-adv-x="537" 
d="M119 512l-29 -141q30 70 85 113t132 43q83 0 132 -55t49 -149q0 -59 -17.5 -117.5t-49.5 -109t-84 -82t-114 -31.5q-78 0 -126.5 49.5t-48.5 129.5v9l-73 -349h-20l146 690h18zM304 509q-58 0 -106 -30.5t-77 -79t-45 -104t-16 -109.5q0 -85 45 -135.5t121 -50.5
q75 0 132.5 52.5t84 124t26.5 144.5q0 84 -42 136t-123 52z" />
    <glyph glyph-name="q" unicode="q" horiz-adv-x="537" 
d="M512 512l-147 -689h-20l71 325q-71 -164 -218 -164q-86 0 -134.5 53.5t-48.5 148.5q0 81 30.5 157.5t94.5 130t147 53.5q79 0 124 -43t51 -123l31 151h19zM287 508q-79 0 -138.5 -50.5t-86.5 -122.5t-27 -150q0 -87 43.5 -135.5t120.5 -48.5q59 0 108 33.5t78.5 86
t45.5 110.5t16 113q0 76 -42.5 120t-117.5 44z" />
    <glyph glyph-name="r" unicode="r" horiz-adv-x="259" 
d="M312 510l-4 -21q-15 2 -31 2q-46 0 -83 -19t-59.5 -45.5t-41 -69t-27 -75.5t-18.5 -79l-43 -203h-21l108 512h20l-29 -139q71 140 197 140q10 0 32 -3z" />
    <glyph glyph-name="s" unicode="s" horiz-adv-x="463" 
d="M414 361h-20q1 11 1 23q0 119 -155 119q-70 0 -109.5 -30t-39.5 -83q0 -14 4 -26.5t8 -21t15.5 -17.5t17 -13.5t21.5 -12t21.5 -9.5t24.5 -8.5t22 -7.5q30 -11 44 -16.5t39 -18.5t37 -26t22 -34t10 -47q0 -67 -53 -107t-140 -40q-90 0 -137 39.5t-47 115.5q0 18 3 34h20
q-3 -26 -3 -36q0 -65 42.5 -100t121.5 -35q76 0 123.5 35.5t47.5 92.5q0 23 -9.5 41.5t-18.5 29t-34 22.5t-33.5 15t-39.5 14q-4 2 -14 5q-33 12 -50.5 19.5t-41 23t-34.5 37.5t-11 52q0 62 47 97.5t129 35.5q83 0 126.5 -35t43.5 -102q0 -11 -1 -25z" />
    <glyph glyph-name="t" unicode="t" horiz-adv-x="241" 
d="M259 512l-5 -19h-112l-77 -366q-9 -44 -9 -63q0 -47 63 -47q26 0 52 5l-4 -20q-29 -4 -52 -4q-81 0 -81 63q0 13 11 68l77 364h-97l4 19h97l34 162h21l-34 -162h112z" />
    <glyph glyph-name="u" unicode="u" 
d="M472 512l-108 -512h-20l26 127q-38 -74 -86 -108t-113 -34q-69 0 -111.5 37.5t-42.5 97.5q0 44 13 102l62 290h20l-63 -299q-12 -60 -12 -89q0 -55 37 -88t99 -33q64 0 113 41t73 94t38 117l54 257h21z" />
    <glyph glyph-name="v" unicode="v" horiz-adv-x="407" 
d="M438 512l-292 -512h-26l-97 512h22l91 -492l278 492h24z" />
    <glyph glyph-name="w" unicode="w" horiz-adv-x="685" 
d="M721 512l-274 -512h-25l-59 495l-262 -495h-28l-59 512h21l54 -495l261 495h30l58 -495l261 495h22z" />
    <glyph glyph-name="x" unicode="x" horiz-adv-x="407" 
d="M433 512l-232 -248l148 -264h-23l-140 252l-239 -252h-26l255 267l-135 245h24l126 -232l217 232h25z" />
    <glyph glyph-name="y" unicode="y" horiz-adv-x="407" 
d="M439 512l-318 -557q-22 -38 -34 -56t-32 -38.5t-43.5 -28t-56.5 -7.5h-23l3 19h20q52 0 77.5 22.5t60.5 82.5l30 51l-104 512h21l98 -490l277 490h24z" />
    <glyph glyph-name="z" unicode="z" horiz-adv-x="407" 
d="M434 512l-5 -24l-467 -471l12 1h356l-5 -18h-385l6 26l464 468h-354l4 18h374z" />
    <glyph glyph-name="braceleft" unicode="{" horiz-adv-x="333" 
d="M109 68q-21 -105 -21 -138q0 -44 25.5 -66t91.5 -26l-4 -17q-74 4 -103 31t-29 77q0 28 18 118q21 95 21 123q0 44 -26.5 62.5t-92.5 27.5l4 21q88 12 123 41t53 111l13 61q9 41 14 61.5t14 48.5t18 41.5t24 30t34 23.5t45 13t61 8l-3 -17q-44 -2 -75.5 -14.5t-48.5 -23
t-32 -46.5t-18.5 -51t-14.5 -72l-1.5 -7.5t-1.5 -7t-2 -8.5l-8 -41q-14 -75 -49.5 -113t-113.5 -47v-3q55 -6 78.5 -30.5t23.5 -67.5q0 -20 -17 -103z" />
    <glyph glyph-name="bar" unicode="|" horiz-adv-x="222" 
d="M102 -214v1000h18v-1000h-18z" />
    <glyph glyph-name="braceright" unicode="}" horiz-adv-x="333" 
d="M279 260q-87 -12 -122 -41t-53 -111l-13 -61q-8 -38 -13 -58t-14 -47.5t-18 -41.5t-24.5 -31t-34.5 -25t-46 -14.5t-61 -8.5l4 17q53 3 86 16.5t52.5 44.5t28.5 59.5t21 85.5q3 16 5 24l9 41q17 80 51 115.5t112 44.5v3q-55 6 -78.5 30.5t-23.5 67.5q0 20 17 103
q21 95 21 133q0 45 -26 69t-91 28l4 17q72 -4 101.5 -33t29.5 -80q0 -28 -17 -113q-21 -94 -21 -123q0 -44 26.5 -62.5t92.5 -27.5z" />
    <glyph glyph-name="asciitilde" unicode="~" horiz-adv-x="600" 
d="M554 303q-13 -43 -42.5 -72t-71.5 -29q-28 0 -139 36q-4 1 -27 10t-38.5 14.5t-38 11t-38.5 5.5q-32 0 -57.5 -25t-37.5 -58h-18q15 46 44.5 73.5t68.5 27.5q15 0 37.5 -5t39.5 -10.5t41.5 -14.5t33.5 -12q99 -35 129 -35q34 0 59 24t37 59h18z" />
    <glyph glyph-name="sterling" unicode="&#xa3;" horiz-adv-x="556" 
d="M314 340l-6 -19h-152q11 -44 11 -75q0 -64 -33.5 -114t-95.5 -105q45 17 83 17q29 0 70 -12q6 -2 29 -9t35 -10.5t31 -7t33 -3.5q85 0 145 82l15 -12q-66 -89 -164 -89q-15 0 -34 3.5t-29.5 6.5t-36 11.5l-28.5 9.5q-36 11 -75 11q-63 0 -115 -40l-12 16q81 72 107 106
q54 68 54 141q0 31 -11 73h-94l4 19h85q-37 84 -37 153q0 90 63 145t166 55q215 0 215 -202v-15h-20v12q0 93 -49.5 140.5t-144.5 47.5q-94 0 -152 -50.5t-58 -132.5q0 -62 38 -153h163z" />
    <glyph glyph-name="currency" unicode="&#xa4;" horiz-adv-x="556" 
d="M64 135l64 64q-53 59 -53 137q0 76 53 137l-64 64l12 13l65 -64q59 53 137 53q77 0 138 -53l63 64l12 -13l-63 -63q53 -61 53 -138q0 -76 -53 -138l64 -64l-13 -12l-63 64q-62 -53 -138 -53t-137 53l-64 -63zM278 521q-77 0 -131 -54.5t-54 -130.5q0 -77 54.5 -130.5
t130.5 -53.5q77 0 131 54t54 130q0 77 -54.5 131t-130.5 54z" />
    <glyph glyph-name="brokenbar" unicode="&#xa6;" horiz-adv-x="222" 
d="M102 -89v250h18v-250h-18zM102 411v250h18v-250h-18z" />
    <glyph glyph-name="section" unicode="&#xa7;" horiz-adv-x="556" 
d="M483 527h-20q1 13 1 26q0 61 -39 96t-106 35q-58 0 -94.5 -31.5t-36.5 -80.5q0 -18 4.5 -33t19 -32t19 -23t28.5 -26.5t25 -20.5q79 -68 110 -99q71 -68 71 -135q0 -60 -40.5 -98.5t-101.5 -47.5q38 -41 38 -92q0 -59 -45.5 -97t-115.5 -38q-76 0 -123 43t-47 111
q0 10 3 31h21q-3 -14 -3 -31q0 -61 41.5 -98t110.5 -37q62 0 100 32t38 84q0 9 -1.5 17.5t-3.5 16t-7 16t-8 14t-10.5 14t-10.5 12.5t-12.5 13t-12 11t-13 12t-12.5 11q-112 102 -149 147q-39 48 -39 99q0 56 38 97t96 48q-28 40 -28 79q0 58 42 94t110 36q76 0 120.5 -40.5
t44.5 -110.5q0 -12 -2 -24zM310 72q55 7 95 41.5t40 89.5q0 30 -18 61.5t-35 48.5t-48 45l-136 120q-59 -5 -92.5 -45.5t-33.5 -84.5q0 -28 17.5 -58t30.5 -43.5t44 -44.5z" />
    <glyph glyph-name="copyright" unicode="&#xa9;" horiz-adv-x="800" 
d="M400 730q152 0 258.5 -107.5t106.5 -257.5q0 -154 -108 -260t-261 -106t-257.5 107.5t-104.5 258.5q0 150 107 257.5t259 107.5zM400 712q-144 0 -245.5 -102t-101.5 -245q0 -145 100.5 -246t244.5 -101t246 100.5t102 246.5q0 144 -102 245.5t-244 101.5zM572 280
q-10 -57 -56 -90.5t-104 -33.5q-88 0 -141.5 62.5t-53.5 150.5q0 87 52 149t135 62q62 0 110 -38t54 -98h-18q-10 55 -49.5 86.5t-95.5 31.5q-77 0 -123.5 -56.5t-46.5 -134.5q0 -81 49 -139t127 -58q52 0 91.5 28.5t52.5 77.5h17z" />
    <glyph glyph-name="guillemotleft" unicode="&#xab;" horiz-adv-x="352" 
d="M190 416l-7 -32l-110 -113l61 -120l-6 -28l-73 144l2 14zM290 416l-7 -32l-110 -113l61 -119l-7 -30l-73 145l3 14z" />
    <glyph glyph-name="logicalnot" unicode="&#xac;" horiz-adv-x="600" 
d="M44 340v18h482v-202h-18v184h-464z" />
    <glyph glyph-name="registered" unicode="&#xae;" horiz-adv-x="400" 
d="M250 730q76 0 129.5 -54t53.5 -129q0 -77 -54 -130.5t-129 -53.5q-76 0 -130 53.5t-54 130.5q0 75 53.5 129t130.5 54zM250 715q-70 0 -119 -49.5t-49 -118.5q0 -70 49.5 -119t118.5 -49q70 0 119 49.5t49 118.5t-49.5 118.5t-118.5 49.5zM183 650h68q80 0 80 -56
q0 -18 -9.5 -32.5t-26.5 -18.5q33 -15 33 -68q0 -20 7 -29h-18q-4 7 -4 39q-1 29 -18 39.5t-49 10.5h-47v-89h-16v204zM199 551h53q63 0 63 42q0 15 -5.5 24t-16.5 12t-19.5 4t-23.5 1h-51v-83z" />
    <glyph glyph-name="degree" unicode="&#xb0;" horiz-adv-x="278" 
d="M185 694q56 0 95.5 -39.5t39.5 -95.5t-39.5 -95.5t-95.5 -39.5t-95.5 39.5t-39.5 95.5t40 95.5t95 39.5zM185 676q-49 0 -83 -34.5t-34 -82.5q0 -49 34.5 -83t82.5 -34q49 0 83 34.5t34 82.5q0 49 -34.5 83t-82.5 34z" />
    <glyph glyph-name="plusminus" unicode="&#xb1;" horiz-adv-x="600" 
d="M261 86v199h-232v18h232v199h18v-199h232v-18h-232v-199h-18zM29 0v18h482v-18h-482z" />
    <glyph glyph-name="mu" unicode="&#xb5;" horiz-adv-x="556" 
d="M120 512h20l-65 -310q-9 -43 -9 -66q0 -63 35.5 -98.5t98.5 -35.5q47 0 86.5 22t66.5 59.5t44 78.5t27 86l56 264h22l-111 -512h-20l27 126q-74 -141 -197 -141q-62 0 -102.5 32t-46.5 86l-60 -281h-21z" />
    <glyph glyph-name="paragraph" unicode="&#xb6;" horiz-adv-x="600" 
d="M593 694h-58l-186 -872h-18l185 872h-147l-185 -872h-18l96 454q-78 0 -125.5 47.5t-47.5 133.5q0 113 83 184t208 71h217z" />
    <glyph glyph-name="periodcentered" unicode="&#xb7;" horiz-adv-x="278" 
d="M160 355l-21 -98h-22l22 98h21z" />
    <glyph glyph-name="guillemotright" unicode="&#xbb;" horiz-adv-x="352" 
d="M94 417l73 -142l-3 -17l-132 -135l6 34l111 113l-61 118zM194 417l73 -143l-3 -15l-132 -135l7 33l109 113l-60 118z" />
    <glyph glyph-name="divide" unicode="&#xf7;" horiz-adv-x="600" 
d="M297 337h-22v92h22v-92zM534 242h-498v19h498v-19zM297 74h-22v92h22v-92z" />
    <glyph glyph-name="florin" unicode="&#x192;" horiz-adv-x="556" 
d="M406 420l-5 -19h-125l-104 -388q-12 -43 -17.5 -62t-20.5 -51.5t-30.5 -47.5t-43 -27t-62.5 -12q-2 0 -36 2l5 20q14 -2 30 -2q37 0 64 14.5t44.5 45.5t26 55t20.5 68l103 385h-113l4 19h114l30 112q12 46 22 71t28 49t46.5 33.5t71.5 9.5q23 0 43 -2l-5 -20q-36 2 -38 2
q-31 0 -53.5 -7t-36.5 -16.5t-25 -31t-16.5 -37.5t-14.5 -49l-31 -114h125z" />
    <glyph glyph-name="afii10023" unicode="&#x401;" horiz-adv-x="519" 
d="M330 866l-21 -103h-22l22 103h21zM497 866l-21 -103h-21l21 103h21zM598 712l-4 -19h-432l-67 -313h404l-3 -19h-404l-73 -342h449l-4 -19h-470l151 712h453z" />
    <glyph glyph-name="afii10051" unicode="&#x402;" horiz-adv-x="685" 
d="M608 228q0 87 -40.5 133.5t-114.5 46.5q-93 0 -165.5 -70t-96.5 -182l-33 -156h-20l147 693h-227l4 19h534l-4 -19h-287l-89 -421h2q86 156 239 156q81 0 126 -52t45 -149q0 -61 -18.5 -120t-53 -108t-90.5 -79t-125 -30l4 20q82 0 144 49.5t90.5 120.5t28.5 148z" />
    <glyph glyph-name="afii10052" unicode="&#x403;" horiz-adv-x="463" 
d="M160 693l-147 -693h-20l151 712h419l-4 -19h-399zM487 909l-160 -140h-25l156 140h29z" />
    <glyph glyph-name="afii10053" unicode="&#x404;" horiz-adv-x="685" 
d="M483 381l-3 -19h-418q-7 -41 -7 -89q0 -123 69 -197.5t183 -74.5q109 0 192.5 63t121.5 173h21q-32 -113 -124 -183.5t-211 -70.5q-125 0 -199 79t-74 212q0 85 26 165.5t73.5 144.5t122 103t163.5 39q111 0 181.5 -57t81.5 -155h-22q-12 92 -76 142.5t-167 50.5
q-140 0 -231.5 -93t-119.5 -233h417z" />
    <glyph glyph-name="afii10054" unicode="&#x405;" horiz-adv-x="611" 
d="M600 509h-21v11q0 99 -57.5 141t-162.5 42q-58 0 -106.5 -14.5t-84 -54t-35.5 -99.5q0 -38 13.5 -65.5t42 -45.5t51.5 -27t64 -21q11 -3 40.5 -11.5t42.5 -12.5t38 -13.5t36.5 -18t29 -22.5t25.5 -29t14 -36.5t6 -47.5q0 -70 -40.5 -117t-97 -65.5t-125.5 -18.5
q-125 0 -192.5 58.5t-67.5 167.5q0 14 1 27h20q-1 -12 -1 -23q0 -109 64 -160.5t179 -51.5q61 0 113 16.5t89.5 59t37.5 106.5q0 26 -6 47t-21 37t-28 27t-38 21t-39 15t-44.5 13.5t-40.5 11.5q-45 14 -70 24.5t-56.5 30.5t-46 50t-14.5 72q0 87 66 138t179 51
q243 0 243 -194v-19z" />
    <glyph glyph-name="afii10055" unicode="&#x406;" horiz-adv-x="148" 
d="M164 712l-151 -712h-21l152 712h20z" />
    <glyph glyph-name="afii10056" unicode="&#x407;" horiz-adv-x="148" 
d="M164 712l-151 -712h-21l152 712h20zM106 866l-21 -103h-22l22 103h21zM273 866l-21 -103h-21l21 103h21z" />
    <glyph glyph-name="afii10057" unicode="&#x408;" horiz-adv-x="463" 
d="M482 712l-110 -518q-22 -103 -72 -155.5t-149 -52.5q-82 0 -126 39.5t-44 112.5q0 38 10 82h20q-10 -53 -10 -83q0 -64 39 -98.5t112 -34.5q92 0 136.5 51t64.5 146l108 511h21z" />
    <glyph glyph-name="afii10058" unicode="&#x409;" horiz-adv-x="985" 
d="M951 222q0 -81 -46 -139t-124 -74q-41 -9 -126 -9h-209l148 693h-290l-13 -57q-12 -53 -51.5 -208.5t-71.5 -257.5q-53 -176 -156 -176q-54 0 -72 14l5 21q23 -16 67 -16q87 0 138 158q50 160 128 498l10 43h330l-67 -313h160q88 0 130 -12q52 -16 81 -59.5t29 -105.5z
M930 224q0 64 -37 105q-25 30 -65 40.5t-119 10.5h-161l-78 -361h219q100 0 156 35q38 25 61.5 71.5t23.5 98.5z" />
    <glyph glyph-name="afii10059" unicode="&#x40a;" horiz-adv-x="985" 
d="M503 380h-423l-81 -380h-21l152 712h21l-66 -313h422l66 313h21l-67 -313h186q88 0 129 -12q52 -16 81.5 -60t29.5 -105q0 -80 -46.5 -138.5t-123.5 -74.5q-42 -9 -126 -9h-234zM932 224q0 62 -37 105q-26 30 -65.5 40.5t-118.5 10.5h-187l-77 -361h244q58 0 91 8t64 27
q39 25 62.5 71.5t23.5 98.5z" />
    <glyph glyph-name="afii10060" unicode="&#x40b;" horiz-adv-x="685" 
d="M442 431q102 0 139.5 -38t37.5 -116q0 -35 -19 -124l-33 -153h-20l37 171q13 57 13 106q0 68 -33 101.5t-122 33.5q-48 0 -112 -32.5t-105 -67.5l-67 -312h-20l148 693h-227l4 19h534l-4 -19h-287l-76 -354q38 33 100.5 62.5t111.5 29.5z" />
    <glyph glyph-name="afii10061" unicode="&#x40c;" horiz-adv-x="593" 
d="M664 712l-398 -305l293 -407h-24l-285 395l-181 -137l-54 -258h-21l149 712h20l-89 -427l558 427h32zM527 909l-160 -140h-25l156 140h29z" />
    <glyph glyph-name="afii10062" unicode="&#x40e;" horiz-adv-x="537" 
d="M222 154l-144 558h21l139 -535l366 535h24l-432 -634q-66 -95 -144 -95q-16 0 -43 7.5t-36 14.5l5 22q10 -8 35.5 -16t41.5 -8q63 0 124 88zM243 867h20q-2 -87 84 -87q45 0 74 20.5t48 66.5h20q-17 -52 -54 -79.5t-87 -27.5t-78 27.5t-27 79.5z" />
    <glyph glyph-name="afii10145" unicode="&#x40f;" horiz-adv-x="648" 
d="M270 0l-37 -178h-20l37 178h-258l151 712h20l-147 -693h480l147 693h20l-151 -712h-242z" />
    <glyph glyph-name="afii10017" unicode="&#x410;" horiz-adv-x="574" 
d="M386 712l134 -712h-22l-44 235h-362l-145 -235h-25l444 712h20zM371 688l-266 -434h345z" />
    <glyph glyph-name="afii10018" unicode="&#x411;" horiz-adv-x="611" 
d="M596 712l-4 -19h-434l-61 -293h218q85 0 129 -13q52 -16 81.5 -60t29.5 -105q0 -80 -46.5 -138.5t-123.5 -74.5q-42 -9 -126 -9h-268l151 712h454zM534 224q0 62 -37 105q-26 30 -65.5 40.5t-118.5 10.5h-220l-77 -361h277q99 0 155 35q39 25 62.5 71.5t23.5 98.5z" />
    <glyph glyph-name="afii10019" unicode="&#x412;" horiz-adv-x="611" 
d="M144 712h241q103 0 159 -35t56 -122q0 -75 -51 -125.5t-136 -60.5q147 -19 147 -152q0 -69 -41 -126t-106 -76q-55 -15 -144 -15h-276zM161 694l-68 -316h250q42 0 80 8.5t75 27t59 55t22 86.5q0 36 -11.5 62t-29.5 40.5t-45.5 23t-53 11t-59.5 2.5h-219zM89 359
l-71 -340h234q105 0 155 15q58 17 95 67.5t37 114.5q0 37 -12.5 64t-31 42t-47.5 23.5t-55.5 11t-61.5 2.5h-242z" />
    <glyph glyph-name="afii10020" unicode="&#x413;" horiz-adv-x="463" 
d="M160 693l-147 -693h-20l151 712h419l-4 -19h-399z" />
    <glyph glyph-name="afii10021" unicode="&#x414;" horiz-adv-x="648" 
d="M539 -178h-20l38 178h-600l-38 -178h-20l42 197h66q52 63 92 136t69.5 163t47 157.5t41.5 177.5l13 59h379l-148 -693h80zM481 19l144 674h-339l-15 -70q-42 -197 -97 -349t-143 -255h450z" />
    <glyph glyph-name="afii10022" unicode="&#x415;" horiz-adv-x="519" 
d="M598 712l-4 -19h-432l-67 -313h404l-3 -19h-404l-73 -342h449l-4 -19h-470l151 712h453z" />
    <glyph glyph-name="afii10024" unicode="&#x416;" horiz-adv-x="978" 
d="M-47 0h-29l420 412l-220 300h25l315 -429l90 429h20l-90 -427l480 427h29l-349 -310l267 -402h-24l-258 388l-152 -135l-54 -253h-20l55 256l-103 141z" />
    <glyph glyph-name="afii10025" unicode="&#x417;" horiz-adv-x="611" 
d="M521 221q0 63 -45.5 104t-125.5 41h-100l3 20h100q88 0 149.5 47.5t61.5 131.5q0 68 -52.5 106.5t-144.5 38.5q-217 0 -256 -197h-20q21 105 91.5 161t188.5 56q98 0 156 -43t58 -121q0 -76 -49 -127.5t-127 -61.5l-1 -2q57 -3 95.5 -48t38.5 -105q0 -111 -72 -174.5
t-194 -63.5q-125 0 -192.5 58.5t-67.5 167.5q0 14 1 27h20q-1 -12 -1 -23q0 -109 64 -160.5t179 -51.5q110 0 176 59t66 160z" />
    <glyph glyph-name="afii10026" unicode="&#x418;" horiz-adv-x="648" 
d="M663 712l-152 -712h-21l148 693l-614 -693h-32l152 712h21l-148 -693l614 693h32z" />
    <glyph glyph-name="afii10027" unicode="&#x419;" horiz-adv-x="648" 
d="M663 712l-152 -712h-21l148 693l-614 -693h-32l152 712h21l-148 -693l614 693h32zM313 867h20q-2 -87 84 -87q45 0 74 20.5t48 66.5h20q-17 -52 -54 -79.5t-87 -27.5t-78 27.5t-27 79.5z" />
    <glyph glyph-name="afii10028" unicode="&#x41a;" horiz-adv-x="593" 
d="M660 712l-398 -305l293 -407h-24l-285 395l-181 -137l-54 -258h-21l149 712h20l-89 -427l558 427h32z" />
    <glyph glyph-name="afii10029" unicode="&#x41b;" horiz-adv-x="648" 
d="M150 171q50 160 128 498l10 43h376l-152 -712h-20l148 693h-336l-13 -57q-12 -53 -51.5 -208.5t-71.5 -257.5q-53 -176 -156 -176q-54 0 -72 14l5 21q23 -16 67 -16q87 0 138 158z" />
    <glyph glyph-name="afii10030" unicode="&#x41c;" horiz-adv-x="796" 
d="M814 712l-152 -712h-21l149 687l-450 -687h-25l-158 687l-144 -687h-21l151 712h29l159 -693l453 693h30z" />
    <glyph glyph-name="afii10031" unicode="&#x41d;" horiz-adv-x="648" 
d="M663 712l-152 -712h-21l78 362h-478l-77 -362h-21l152 712h21l-70 -331h477l70 331h21z" />
    <glyph glyph-name="afii10032" unicode="&#x41e;" horiz-adv-x="722" 
d="M699 442q0 -117 -42.5 -219.5t-131.5 -171t-208 -68.5q-129 0 -206 80.5t-77 215.5q0 86 25 166t72 144t120.5 102.5t163.5 38.5q129 0 206.5 -79t77.5 -209zM411 711q-85 0 -154.5 -37.5t-112.5 -99.5t-66 -138t-23 -156q0 -127 72 -202.5t192 -75.5q85 0 155 38.5
t113 102t66.5 140.5t23.5 159q0 123 -71.5 196t-194.5 73z" />
    <glyph glyph-name="afii10033" unicode="&#x41f;" horiz-adv-x="648" 
d="M663 712l-152 -712h-21l148 693h-478l-147 -693h-21l152 712h519z" />
    <glyph glyph-name="afii10034" unicode="&#x420;" horiz-adv-x="574" 
d="M143 712h223q84 0 127 -13q49 -14 77 -56t28 -101q0 -86 -56 -147q-29 -31 -72 -47t-73.5 -18t-86.5 -2h-227l-69 -328h-22zM161 692l-74 -345h257q57 0 89 7.5t62 26.5q37 23 59.5 68t22.5 95q0 61 -35 100q-24 28 -62 38t-116 10h-203z" />
    <glyph glyph-name="afii10035" unicode="&#x421;" horiz-adv-x="685" 
d="M646 251q-29 -119 -123 -193.5t-216 -74.5q-125 0 -199 79t-74 212q0 85 26 165.5t73.5 144.5t122 103t163.5 39q116 0 187.5 -62t76.5 -167h-21q-8 99 -72.5 154.5t-172.5 55.5q-85 0 -155 -37t-114.5 -99t-68.5 -139t-24 -159q0 -123 69 -197.5t183 -74.5
q112 0 197.5 67t120.5 183h21z" />
    <glyph glyph-name="afii10036" unicode="&#x422;" 
d="M597 712l-3 -19h-253l-146 -693h-21l146 693h-263l5 19h535z" />
    <glyph glyph-name="afii10037" unicode="&#x423;" horiz-adv-x="537" 
d="M222 154l-144 558h21l139 -535l366 535h24l-432 -634q-66 -95 -144 -95q-16 0 -43 7.5t-36 14.5l5 22q10 -8 35.5 -16t41.5 -8q63 0 124 88z" />
    <glyph glyph-name="afii10038" unicode="&#x424;" horiz-adv-x="714" 
d="M686 396q0 -138 -101 -224t-266 -86h-9l-19 -86h-20l19 86q-115 2 -187.5 65t-72.5 173q0 138 100.5 224t265.5 86h10l17 78h20l-17 -78q115 -2 187.5 -65t72.5 -173zM665 393q0 103 -67 161.5t-176 60.5l-108 -510h9q153 0 247.5 79.5t94.5 208.5zM402 615h-9
q-153 0 -247.5 -79.5t-94.5 -208.5q0 -103 67 -161.5t176 -60.5z" />
    <glyph glyph-name="afii10039" unicode="&#x425;" horiz-adv-x="519" 
d="M611 712l-332 -347l193 -365h-23l-185 349l-334 -349h-29l353 368l-181 344h24l172 -331l314 331h28z" />
    <glyph glyph-name="afii10040" unicode="&#x426;" horiz-adv-x="667" 
d="M552 -178h-20l38 178h-578l152 712h20l-148 -693h478l148 693h20l-148 -693h80z" />
    <glyph glyph-name="afii10041" unicode="&#x427;" horiz-adv-x="611" 
d="M475 0h-20l77 363q-142 -60 -249 -60q-116 0 -161.5 36.5t-45.5 109.5q0 49 16 121l30 142h20l-31 -149q-16 -75 -16 -111q0 -66 42 -97.5t147 -31.5q101 0 252 60l70 329h20z" />
    <glyph glyph-name="afii10042" unicode="&#x428;" horiz-adv-x="988" 
d="M852 0h-860l151 712h20l-147 -693h400l147 693h20l-147 -693h400l147 693h20z" />
    <glyph glyph-name="afii10043" unicode="&#x429;" horiz-adv-x="1024" 
d="M894 -178h-20l38 178h-920l152 712h20l-148 -693h400l148 693h20l-148 -693h400l148 693h20l-148 -693h80z" />
    <glyph glyph-name="afii10044" unicode="&#x42a;" horiz-adv-x="778" 
d="M340 693h-274l4 19h294l-66 -313h208q88 0 129 -12q52 -16 81.5 -60t29.5 -105q0 -80 -46.5 -138.5t-123.5 -74.5q-42 -9 -126 -9h-257zM725 224q0 62 -37 105q-26 30 -65.5 40.5t-118.5 10.5h-210l-77 -361h267q58 0 91 8t64 27q39 25 62.5 71.5t23.5 98.5z" />
    <glyph glyph-name="afii10045" unicode="&#x42b;" horiz-adv-x="778" 
d="M794 712h20l-151 -712h-20zM543 222q0 -81 -46 -139t-124 -74q-41 -9 -126 -9h-257l151 712h20l-66 -313h208q88 0 129 -12q52 -16 81.5 -60t29.5 -105zM522 224q0 62 -37 105q-26 30 -65.5 40.5t-118.5 10.5h-209l-78 -361h267q58 0 91.5 8t63.5 27q39 25 62.5 71.5
t23.5 98.5z" />
    <glyph glyph-name="afii10046" unicode="&#x42c;" horiz-adv-x="575" 
d="M543 222q0 -81 -46 -139t-124 -74q-41 -9 -126 -9h-257l151 712h20l-66 -313h208q88 0 129 -12q52 -16 81.5 -60t29.5 -105zM522 224q0 62 -37 105q-26 30 -65.5 40.5t-118.5 10.5h-209l-78 -361h267q58 0 91.5 8t63.5 27q39 25 62.5 71.5t23.5 98.5z" />
    <glyph glyph-name="afii10047" unicode="&#x42d;" horiz-adv-x="685" 
d="M279 2q85 0 155 37t114.5 99t68.5 139t24 159q0 123 -69 197.5t-183 74.5q-98 0 -176.5 -51.5t-120.5 -143.5h-24q41 97 127.5 155t193.5 58q125 0 199 -79t74 -212q0 -85 -26 -165.5t-73.5 -144.5t-122 -103t-163.5 -39q-124 0 -193.5 68t-71.5 186h20q5 -113 67 -174
t180 -61zM639 362h-422l3 19h421z" />
    <glyph glyph-name="afii10048" unicode="&#x42e;" horiz-adv-x="935" 
d="M912 442q0 -117 -42.5 -219.5t-131.5 -171t-208 -68.5q-129 0 -206 80.5t-77 215.5q0 43 6 83h-163l-77 -362h-21l152 712h21l-70 -331h161q18 97 64 174t126 126t182 49q129 0 206.5 -79t77.5 -209zM624 711q-85 0 -154.5 -37.5t-112.5 -99.5t-66 -138t-23 -156
q0 -127 72 -202.5t192 -75.5q85 0 155 38.5t113 102t66.5 140.5t23.5 159q0 123 -71.5 196t-194.5 73z" />
    <glyph glyph-name="afii10049" unicode="&#x42f;" horiz-adv-x="611" 
d="M287 335l-331 -335h-29l333 336q-81 0 -132 39.5t-51 125.5q0 77 44 132.5t117 70.5q36 8 124 8h261l-151 -712h-20l71 335h-236zM599 693h-270q-57 0 -88.5 -7.5t-61.5 -26.5q-36 -23 -58 -67t-22 -93q0 -58 34 -98q23 -27 60.5 -37t115.5 -10h217z" />
    <glyph glyph-name="afii10065" unicode="&#x430;" horiz-adv-x="481" 
d="M60 366q43 159 206 159q76 0 117.5 -32t41.5 -90q0 -24 -14 -86l-34 -151q-21 -93 -21 -116q0 -33 29 -33q10 0 36 5l-3 -19q-28 -4 -37 -4q-25 0 -34.5 13.5t-9.5 39.5q0 15 11 60q-71 -127 -210 -127q-72 0 -114 36.5t-42 98.5q0 36 11.5 63.5t31.5 44t45 28t55.5 16.5
t59 7.5t59.5 4.5q15 1 23 1q1 0 13 0.5t15.5 1t15.5 1.5t17.5 2.5t15.5 3.5t16 4.5t12.5 6.5t10.5 9q22 24 22 86q0 106 -141 106q-75 0 -119.5 -33.5t-64.5 -106.5h-20zM389 298q-26 -24 -102 -30q-12 -1 -48 -2.5t-55.5 -3.5t-52 -7t-51.5 -15t-39 -25t-29.5 -39t-9.5 -56
q0 -55 35.5 -86t98.5 -31q90 0 147.5 53t80.5 143z" />
    <glyph glyph-name="afii10066" unicode="&#x431;" horiz-adv-x="519" 
d="M524 730q-10 -29 -32 -42t-76 -20l-109 -15q-47 -6 -85 -28t-62 -49.5t-44.5 -71t-32 -78t-24.5 -85.5h2q70 169 236 169q81 0 130 -51.5t49 -139.5q0 -60 -16.5 -118t-47 -107t-81 -79t-112.5 -30q-90 0 -139.5 52.5t-49.5 149.5q0 76 13 150t42 148.5t85 125.5t133 61
l125 17q65 9 76 41h20zM456 321q0 78 -44 124t-121 46q-112 0 -176.5 -92t-64.5 -213q0 -87 44 -135t124 -48q77 0 133 50.5t80.5 121t24.5 146.5z" />
    <glyph glyph-name="afii10067" unicode="&#x432;" horiz-adv-x="481" 
d="M92 512h203q73 0 113.5 -25t40.5 -87q0 -54 -36 -90t-98 -44q105 -14 105 -111q0 -50 -29 -90.5t-76 -53.5q-40 -11 -103 -11h-228zM8 19h189q71 0 110 11q41 12 67 47.5t26 79.5q0 60 -39.5 81t-106.5 21h-196zM62 278h203q41 0 75.5 9.5t61.5 38.5t27 74q0 30 -11 49.5
t-32 29t-42.5 12.5t-52.5 3h-183z" />
    <glyph glyph-name="afii10068" unicode="&#x433;" horiz-adv-x="379" 
d="M10 0h-20l108 512h323l-4 -19h-303z" />
    <glyph glyph-name="afii10069" unicode="&#x434;" horiz-adv-x="519" 
d="M374 19h68l-42 -196h-20l38 177h-460l-38 -177h-20l42 196h53q69 80 111 199.5t79 293.5h293zM354 19l100 474h-254q-74 -348 -183 -474h337z" />
    <glyph glyph-name="afii10070" unicode="&#x435;" 
d="M430 169q-26 -89 -84.5 -137t-141.5 -48q-93 0 -144.5 57.5t-51.5 161.5q0 138 74.5 229.5t187.5 91.5q88 0 137.5 -53.5t49.5 -148.5q0 -26 -5 -62h-419q-5 -29 -5 -55q0 -95 46 -149t128 -54q153 0 207 167h21zM36 279h398q4 24 4 41q0 88 -44.5 137t-124.5 49
q-87 0 -150 -61.5t-83 -165.5z" />
    <glyph glyph-name="afii10072" unicode="&#x436;" horiz-adv-x="682" 
d="M224 280l-292 -280h-28l308 296l-163 216h27l228 -305l64 305h20l-64 -304l354 304h30l-256 -219l187 -293h-24l-179 279l-118 -99l-38 -180h-20l39 182z" />
    <glyph glyph-name="afii10073" unicode="&#x437;" horiz-adv-x="463" 
d="M423 407q0 -55 -36 -92t-93 -45v-1q41 -2 69 -35.5t28 -77.5q0 -81 -54.5 -127t-144.5 -46q-91 0 -140.5 42.5t-49.5 121.5q0 11 1 20h19v-14q0 -150 172 -150q79 0 128 42t49 113q0 44 -32 72.5t-88 28.5h-80l4 19h78q62 0 105.5 35t43.5 94q0 47 -36.5 73.5
t-102.5 26.5q-159 0 -187 -139h-20q15 76 69 117.5t141 41.5q72 0 114.5 -31.5t42.5 -88.5z" />
    <glyph glyph-name="afii10074" unicode="&#x438;" 
d="M17 0h-33l108 512h20l-104 -494h2l436 494h33l-108 -512h-20l104 494h-2z" />
    <glyph glyph-name="afii10075" unicode="&#x439;" 
d="M192 712h20q-2 -87 83 -87q90 0 123 87h20q-38 -107 -143 -107q-50 0 -77 27.5t-26 79.5zM17 0h-33l108 512h20l-104 -494h2l436 494h33l-108 -512h-20l104 494h-2z" />
    <glyph glyph-name="afii10076" unicode="&#x43a;" horiz-adv-x="444" 
d="M432 512h31l-272 -213l206 -299h-26l-197 285l-135 -104l-38 -181h-20l108 512h20l-64 -303z" />
    <glyph glyph-name="afii10077" unicode="&#x43b;" horiz-adv-x="519" 
d="M129 154q39 125 77 285l17 73h277l-108 -512h-20l104 493h-237l-13 -54q-34 -144 -77 -285q-20 -66 -56.5 -113t-87.5 -47q-38 0 -57 14l4 20q16 -14 53 -14q43 0 74.5 41.5t49.5 98.5z" />
    <glyph glyph-name="afii10078" unicode="&#x43c;" horiz-adv-x="611" 
d="M4 0h-20l108 512h30l114 -491l322 491h32l-108 -512h-20l103 488h-2l-318 -488h-24l-112 488h-2z" />
    <glyph glyph-name="afii10079" unicode="&#x43d;" 
d="M4 0h-20l108 512h20l-49 -236h347l49 236h20l-108 -512h-20l55 257h-347z" />
    <glyph glyph-name="afii10080" unicode="&#x43e;" horiz-adv-x="519" 
d="M472 327q0 -82 -27.5 -158t-90 -130t-147.5 -54q-94 0 -145.5 55t-51.5 155q0 61 17.5 119.5t50 106t85.5 76.5t118 29q89 0 140 -54.5t51 -144.5zM279 507q-79 0 -137.5 -48t-85 -117.5t-26.5 -147.5q0 -91 46.5 -141t129.5 -50q61 0 109.5 30t77.5 79t44 104.5
t15 112.5q0 81 -46.5 129.5t-126.5 48.5z" />
    <glyph glyph-name="afii10081" unicode="&#x43f;" 
d="M4 0h-20l108 512h387l-108 -512h-20l104 493h-347z" />
    <glyph glyph-name="afii10082" unicode="&#x440;" horiz-adv-x="537" 
d="M119 512l-29 -141q30 70 85 113t132 43q83 0 132 -55t49 -149q0 -59 -17.5 -117.5t-49.5 -109t-84 -82t-114 -31.5q-78 0 -126.5 49.5t-48.5 129.5v9l-73 -349h-20l146 690h18zM304 509q-58 0 -106 -30.5t-77 -79t-45 -104t-16 -109.5q0 -85 45 -135.5t121 -50.5
q75 0 132.5 52.5t84 124t26.5 144.5q0 84 -42 136t-123 52z" />
    <glyph glyph-name="afii10083" unicode="&#x441;" 
d="M437 163q-27 -82 -87.5 -129.5t-146.5 -47.5q-92 0 -140 57t-48 151q0 85 30 158.5t94 123t150 49.5q83 0 130 -44t47 -122h-19q0 69 -42.5 108.5t-117.5 39.5q-116 0 -183.5 -94t-67.5 -215q0 -93 44.5 -143.5t126.5 -50.5q148 0 209 159h21z" />
    <glyph glyph-name="afii10084" unicode="&#x442;" horiz-adv-x="407" 
d="M141 0h-20l104 493h-201l4 19h422l-4 -19h-201z" />
    <glyph glyph-name="afii10085" unicode="&#x443;" horiz-adv-x="407" 
d="M439 512l-318 -557q-22 -38 -34 -56t-32 -38.5t-43.5 -28t-56.5 -7.5h-23l3 19h20q52 0 77.5 22.5t60.5 82.5l30 51l-104 512h21l98 -490l277 490h24z" />
    <glyph glyph-name="afii10086" unicode="&#x444;" horiz-adv-x="762" 
d="M726 324q0 -82 -29 -158t-89 -128.5t-138 -52.5q-49 0 -86 23.5t-50 61.5h-2l-53 -248h-20l53 244h-2q-21 -35 -60 -58t-86 -23q-75 0 -121 56.5t-46 145.5q0 82 29 158t89 128.5t138 52.5q49 0 86 -23.5t50 -61.5h2l58 271h20l-58 -267h2q21 35 60 58t86 23
q75 0 121 -56.5t46 -145.5zM705 324q0 82 -42 132t-108 50q-55 0 -101.5 -41.5t-59.5 -104.5l-44 -203q-16 -72 20.5 -112t100.5 -40q72 0 127 50.5t81 121.5t26 147zM373 354q16 72 -20.5 112t-100.5 40q-72 0 -127 -50.5t-81 -121.5t-26 -147q0 -82 42 -132t108 -50
q55 0 101.5 41.5t59.5 104.5z" />
    <glyph glyph-name="afii10087" unicode="&#x445;" horiz-adv-x="407" 
d="M433 512l-232 -248l148 -264h-23l-140 252l-239 -252h-26l255 267l-135 245h24l126 -232l217 232h25z" />
    <glyph glyph-name="afii10088" unicode="&#x446;" horiz-adv-x="519" 
d="M410 -177h-20l38 177h-444l108 512h20l-104 -493h347l104 493h20l-104 -493h77z" />
    <glyph glyph-name="afii10089" unicode="&#x447;" horiz-adv-x="463" 
d="M369 255q-106 -43 -199 -43q-133 0 -133 115q0 23 6 53l28 132h20l-27 -129q-6 -27 -6 -50q0 -101 109 -101q102 0 206 45l50 235h20l-109 -512h-20z" />
    <glyph glyph-name="afii10090" unicode="&#x448;" horiz-adv-x="758" 
d="M92 512h20l-104 -493h292l104 493h20l-104 -493h292l104 493h20l-108 -512h-644z" />
    <glyph glyph-name="afii10091" unicode="&#x449;" horiz-adv-x="778" 
d="M668 -177h-20l38 177h-702l108 512h20l-104 -493h292l104 493h20l-104 -493h292l104 493h20l-104 -493h78z" />
    <glyph glyph-name="afii10092" unicode="&#x44a;" horiz-adv-x="611" 
d="M556 159q0 -57 -33 -99t-88 -54q-30 -6 -91 -6h-213l105 493h-213l4 19h233l-48 -226h173q61 0 92 -9q37 -11 58 -42.5t21 -75.5zM537 161q0 43 -25 72q-17 20 -44.5 27.5t-83.5 7.5h-175l-54 -249h214q71 0 109 24q26 17 42.5 49.5t16.5 68.5z" />
    <glyph glyph-name="afii10093" unicode="&#x44b;" horiz-adv-x="611" 
d="M482 0h-20l108 512h20zM409 159q0 -57 -33 -99t-89 -54q-29 -6 -90 -6h-213l108 512h21l-48 -226h172q61 0 93 -9q37 -11 58 -42.5t21 -75.5zM365 233q-18 20 -45 27.5t-83 7.5h-176l-53 -249h214q72 0 109 24q26 16 42.5 49t16.5 69q0 43 -25 72z" />
    <glyph glyph-name="afii10094" unicode="&#x44c;" horiz-adv-x="463" 
d="M409 159q0 -57 -33 -99t-89 -54q-29 -6 -90 -6h-213l108 512h21l-48 -226h172q61 0 93 -9q37 -11 58 -42.5t21 -75.5zM365 233q-18 20 -45 27.5t-83 7.5h-176l-53 -249h214q72 0 109 24q26 16 42.5 49t16.5 69q0 43 -25 72z" />
    <glyph glyph-name="afii10095" unicode="&#x44d;" 
d="M454 317q0 -85 -30 -158.5t-94 -123t-150 -49.5q-89 0 -133 47t-44 134h20q0 -163 159 -163q102 0 167 73t80 179h-280l3 20h280q1 12 1 37q0 93 -44.5 143.5t-126.5 50.5q-137 0 -201 -140h-22q29 73 88 115.5t139 42.5q92 0 140 -57t48 -151z" />
    <glyph glyph-name="afii10096" unicode="&#x44e;" horiz-adv-x="698" 
d="M652 327q0 -82 -27.5 -158t-90 -130t-147.5 -54q-94 0 -145.5 55t-51.5 155q0 27 5 62h-136l-55 -257h-20l108 512h20l-49 -236h135q20 107 88.5 178.5t174.5 71.5q89 0 140 -54.5t51 -144.5zM459 507q-79 0 -137.5 -48t-85 -117.5t-26.5 -147.5q0 -91 46.5 -141
t129.5 -50q61 0 109.5 30t77.5 79t44 104.5t15 112.5q0 81 -46.5 129.5t-126.5 48.5z" />
    <glyph glyph-name="afii10097" unicode="&#x44f;" horiz-adv-x="481" 
d="M199 236l-237 -236h-27l239 237q-55 3 -88.5 32t-33.5 88q0 56 32 97t85 52q29 6 89 6h202l-108 -512h-20l50 236h-3h-4h-3h-4h-3h-4h-3h-4h-3h-4h-3h-3h-4h-3h-4h-3h-4h-3h-4h-4h-3h-4h-3h-4h-3h-4h-3h-4h-4h-3h-4h-3h-4h-4h-3h-4h-4h-3h-4h-4h-4h-3h-4h-4h-4h-4h-4h-4
h-10zM437 494h-204q-68 0 -105 -24q-25 -16 -41 -47.5t-16 -66.5q0 -41 24 -68q17 -19 42.5 -26t81.5 -7h167z" />
    <glyph glyph-name="afii10071" unicode="&#x451;" 
d="M430 169q-26 -89 -84.5 -137t-141.5 -48q-93 0 -144.5 57.5t-51.5 161.5q0 138 74.5 229.5t187.5 91.5q88 0 137.5 -53.5t49.5 -148.5q0 -26 -5 -62h-419q-5 -29 -5 -55q0 -95 46 -149t128 -54q153 0 207 167h21zM36 279h398q4 24 4 41q0 88 -44.5 137t-124.5 49
q-87 0 -150 -61.5t-83 -165.5zM219 712l-21 -103h-22l22 103h21zM386 712l-21 -103h-21l21 103h21z" />
    <glyph glyph-name="afii10099" unicode="&#x452;" 
d="M394 103q-58 -270 -286 -280l4 20q102 5 169 70.5t93 188.5q1 5 8.5 34.5t12.5 55t5 43.5q0 61 -31 96t-97 35q-84 0 -151 -60t-87 -155l-32 -151h-20l105 493h-60l4 19h60l42 200h20l-42 -200h271l-4 -19h-271l-52 -243h2q28 60 85 98t129 38q74 0 111.5 -40t37.5 -106
q0 -19 -4 -43t-13 -58.5t-9 -35.5z" />
    <glyph glyph-name="afii10100" unicode="&#x453;" horiz-adv-x="379" 
d="M10 0h-20l108 512h323l-4 -19h-303zM391 739l-160 -140h-25l156 140h29z" />
    <glyph glyph-name="afii10101" unicode="&#x454;" 
d="M325 276l-4 -20h-281q-4 -25 -4 -58q0 -93 44.5 -143.5t126.5 -50.5q148 0 209 159h21q-27 -82 -87.5 -129.5t-146.5 -47.5q-92 0 -140 57t-48 151q0 85 30 158.5t94 123t150 49.5q80 0 127 -41.5t50 -114.5h-19q-3 65 -45.5 101.5t-114.5 36.5q-96 0 -159.5 -66.5
t-83.5 -164.5h281z" />
    <glyph glyph-name="afii10102" unicode="&#x455;" horiz-adv-x="463" 
d="M414 361h-20q1 11 1 23q0 119 -155 119q-70 0 -109.5 -30t-39.5 -83q0 -14 4 -26.5t8 -21t15.5 -17.5t17 -13.5t21.5 -12t21.5 -9.5t24.5 -8.5t22 -7.5q30 -11 44 -16.5t39 -18.5t37 -26t22 -34t10 -47q0 -67 -53 -107t-140 -40q-90 0 -137 39.5t-47 115.5q0 18 3 34h20
q-3 -26 -3 -36q0 -65 42.5 -100t121.5 -35q76 0 123.5 35.5t47.5 92.5q0 23 -9.5 41.5t-18.5 29t-34 22.5t-33.5 15t-39.5 14q-4 2 -14 5q-33 12 -50.5 19.5t-41 23t-34.5 37.5t-11 52q0 62 47 97.5t129 35.5q83 0 126.5 -35t43.5 -102q0 -11 -1 -25z" />
    <glyph glyph-name="afii10103" unicode="&#x456;" horiz-adv-x="130" 
d="M112 512l-109 -512h-20l108 512h21zM155 712l-21 -102h-21l21 102h21z" />
    <glyph glyph-name="afii10104" unicode="&#x457;" horiz-adv-x="130" 
d="M112 512l-109 -512h-20l108 512h21zM68 712l-21 -103h-22l22 103h21zM235 712l-21 -103h-21l21 103h21z" />
    <glyph glyph-name="afii10105" unicode="&#x458;" horiz-adv-x="130" 
d="M111 512l-116 -552q-8 -38 -14 -57t-19 -41t-35.5 -31t-56.5 -9q-1 0 -31 2l3 20q23 -3 30 -3q48 0 68.5 26t31.5 80l119 565h20zM154 712l-21 -102h-21l21 102h21z" />
    <glyph glyph-name="afii10106" unicode="&#x459;" horiz-adv-x="763" 
d="M712 159q0 -57 -33.5 -99t-88.5 -54q-30 -6 -90 -6h-158l104 493h-207l-13 -54q-34 -144 -77 -285q-20 -66 -56.5 -113t-87.5 -47q-38 0 -57 14l4 20q16 -14 53 -14q43 0 74.5 41.5t49.5 98.5q39 125 77 285l17 73h247l-47 -226h117q61 0 93 -9q37 -11 58 -42.5t21 -75.5
zM693 161q0 41 -26 72q-17 20 -44.5 27.5t-83.5 7.5h-120l-53 -249h159q70 0 108 24q27 17 43.5 49.5t16.5 68.5z" />
    <glyph glyph-name="afii10107" unicode="&#x45a;" horiz-adv-x="743" 
d="M361 267h-300l-57 -267h-20l108 512h20l-47 -226h300l47 226h20l-47 -226h134q61 0 92 -9q38 -11 59 -42.5t21 -75.5q0 -57 -33.5 -99t-88.5 -54q-30 -6 -90 -6h-175zM646 233q-17 20 -44.5 27.5t-83.5 7.5h-137l-53 -249h176q70 0 108 24q27 17 43 49.5t16 68.5
q0 43 -25 72z" />
    <glyph glyph-name="afii10108" unicode="&#x45b;" 
d="M422 253q0 -31 -16 -104l-32 -149h-20l32 154q15 74 15 102q0 51 -36.5 81t-98.5 30q-101 0 -158.5 -69t-79.5 -176l-26 -122h-20l105 493h-60l4 19h60l43 200h20l-43 -200h271l-4 -19h-271l-53 -246q74 139 214 139q69 0 111.5 -36.5t42.5 -96.5z" />
    <glyph glyph-name="afii10109" unicode="&#x45c;" horiz-adv-x="444" 
d="M435 512h31l-272 -213l206 -299h-26l-197 285l-135 -104l-38 -181h-20l108 512h20l-64 -303zM401 739l-160 -140h-25l156 140h29z" />
    <glyph glyph-name="afii10110" unicode="&#x45e;" horiz-adv-x="407" 
d="M439 512l-318 -557q-22 -38 -34 -56t-32 -38.5t-43.5 -28t-56.5 -7.5h-23l3 19h20q52 0 77.5 22.5t60.5 82.5l30 51l-104 512h21l98 -490l277 490h24zM132 712h20q-2 -87 83 -87q90 0 123 87h20q-38 -107 -143 -107q-50 0 -77 27.5t-26 79.5z" />
    <glyph glyph-name="afii10193" unicode="&#x45f;" 
d="M188 0l-38 -177h-20l38 177h-183l108 512h20l-104 -493h347l104 493h20l-108 -512h-184z" />
    <glyph glyph-name="afii10050" unicode="&#x490;" horiz-adv-x="463" 
d="M598 875l-39 -182h-399l-147 -693h-20l151 712h399l35 163h20z" />
    <glyph glyph-name="afii10098" unicode="&#x491;" horiz-adv-x="379" 
d="M402 512l34 159h20l-38 -178h-304l-104 -493h-20l108 512h304z" />
    <glyph glyph-name="endash" unicode="&#x2013;" 
d="M502 275l-4 -18h-500l4 18h500z" />
    <glyph glyph-name="emdash" unicode="&#x2014;" horiz-adv-x="1000" 
d="M1002 275l-4 -18h-1000l4 18h1000z" />
    <glyph glyph-name="quoteleft" unicode="&#x2018;" horiz-adv-x="167" 
d="M199 721l-6 -26q-37 -21 -52 -92l-21 -100h-21l21 100q10 50 24.5 74.5t54.5 43.5z" />
    <glyph glyph-name="quoteright" unicode="&#x2019;" horiz-adv-x="167" 
d="M177 712l-21 -100q-10 -50 -24.5 -74.5t-54.5 -43.5l6 26q37 21 52 92l21 100h21z" />
    <glyph glyph-name="quotesinglbase" unicode="&#x201a;" horiz-adv-x="167" 
d="M58 98l-21 -100q-10 -50 -24.5 -74.5t-54.5 -43.5l6 26q37 21 52 92l21 100h21z" />
    <glyph glyph-name="quotedblleft" unicode="&#x201c;" horiz-adv-x="278" 
d="M306 721l-6 -26q-37 -21 -52 -92l-21 -100h-21l21 100q10 50 24.5 74.5t54.5 43.5zM205 721l-6 -26q-37 -21 -52 -92l-21 -100h-21l21 100q10 50 24.5 74.5t54.5 43.5z" />
    <glyph glyph-name="quotedblright" unicode="&#x201d;" horiz-adv-x="278" 
d="M284 712l-21 -100q-10 -50 -24.5 -74.5t-54.5 -43.5l6 26q37 21 52 92l21 100h21zM183 712l-21 -100q-10 -50 -24.5 -74.5t-54.5 -43.5l6 26q37 21 52 92l21 100h21z" />
    <glyph glyph-name="quotedblbase" unicode="&#x201e;" horiz-adv-x="278" 
d="M153 98l-21 -100q-10 -50 -24.5 -74.5t-54.5 -43.5l6 26q37 21 52 92l21 100h21zM52 98l-21 -100q-10 -50 -24.5 -74.5t-54.5 -43.5l6 26q37 21 52 92l21 100h21z" />
    <glyph glyph-name="dagger" unicode="&#x2020;" horiz-adv-x="556" 
d="M367 712l-51 -245h209l-4 -19h-209l-125 -589h-20l124 589h-210l4 19h210l52 245h20z" />
    <glyph glyph-name="daggerdbl" unicode="&#x2021;" horiz-adv-x="556" 
d="M366 712l-42 -197h209l-4 -19h-208l-90 -422h209l-4 -18h-209l-42 -197h-19l42 197h-210l4 18h210l89 422h-210l5 19h209l42 197h19z" />
    <glyph glyph-name="bullet" unicode="&#x2022;" 
d="M250 534q74 0 126 -52.5t52 -125.5q0 -74 -52.5 -126t-125.5 -52q-74 0 -126 52.5t-52 125.5q0 74 52.5 126t125.5 52z" />
    <glyph glyph-name="ellipsis" unicode="&#x2026;" horiz-adv-x="1000" 
d="M133 98l-21 -98h-22l22 98h21zM468 98l-21 -98h-22l22 98h21zM799 98l-21 -98h-22l22 98h21z" />
    <glyph glyph-name="perthousand" unicode="&#x2030;" horiz-adv-x="1037" 
d="M611 720l-524 -751h-24l524 751h24zM351 573q0 -79 -48.5 -142t-125.5 -63q-61 0 -96.5 36.5t-35.5 98.5q0 83 49.5 141.5t130.5 58.5q61 0 93.5 -35t32.5 -95zM221 685q-67 0 -112 -52.5t-45 -130.5q0 -55 30.5 -85t84.5 -30q68 0 110 56.5t42 127.5q0 114 -110 114z
M634 194q0 -79 -48.5 -142t-125.5 -63q-61 0 -96.5 36.5t-35.5 98.5q0 83 49.5 141.5t130.5 58.5q61 0 93.5 -35t32.5 -95zM504 306q-67 0 -112 -52.5t-45 -130.5q0 -55 30.5 -85t84.5 -30q68 0 110 56.5t42 127.5q0 114 -110 114zM994 194q0 -79 -48.5 -142t-125.5 -63
q-61 0 -96.5 36.5t-35.5 98.5q0 83 49.5 141.5t130.5 58.5q61 0 93.5 -35t32.5 -95zM864 306q-67 0 -112 -52.5t-45 -130.5q0 -55 30.5 -85t84.5 -30q68 0 110 56.5t42 127.5q0 114 -110 114z" />
    <glyph glyph-name="guilsinglleft" unicode="&#x2039;" horiz-adv-x="259" 
d="M189 416l-8 -34l-109 -112l60 -119l-6 -29l-73 144l4 15z" />
    <glyph glyph-name="guilsinglright" unicode="&#x203a;" horiz-adv-x="259" 
d="M103 418l73 -144l-4 -15l-132 -136l7 34l110 113l-61 119z" />
    <glyph glyph-name="afii61352" unicode="&#x2116;" horiz-adv-x="936" 
d="M882 319q0 -78 -44.5 -130.5t-106.5 -52.5q-50 0 -79 29.5t-29 80.5q0 77 42 128t112 51q48 0 76.5 -28.5t28.5 -77.5zM823 19l-4 -19h-261l4 19h261zM628 680l-145 -680h-26l-303 655h-2l-139 -655h-20l145 680h26l302 -655h2l140 655h20zM863 319q0 42 -24.5 65
t-66.5 23q-54 0 -92.5 -45.5t-38.5 -114.5q0 -44 24 -68.5t66 -24.5q57 0 94.5 49.5t37.5 115.5z" />
    <glyph glyph-name="trademark" unicode="&#x2122;" horiz-adv-x="990" 
d="M299 356v337h-132v19h283v-19h-132v-337h-19zM528 356v356h29l133 -334l133 334h29v-356h-18v332l-134 -332h-20l-134 332v-332h-18z" />
    <glyph glyph-name="Delta" unicode="&#x2206;" horiz-adv-x="611" 
d="M383 712l142 -712h-589l440 712h7zM-31 18h532l-129 653z" />
    <glyph glyph-name="radical" unicode="&#x221a;" horiz-adv-x="600" 
d="M506 777l-219 -996h-10l-188 386l-44 -21l-6 15l58 28l180 -373l211 962z" />
    <glyph glyph-name="infinity" unicode="&#x221e;" horiz-adv-x="722" 
d="M339 264q39 35 58 51t59 38t72 22q52 0 85 -35.5t33 -87.5q0 -55 -32.5 -90t-87.5 -35q-29 0 -58 12.5t-43 23t-46.5 40t-39.5 35.5q-11 -9 -40.5 -36t-44.5 -38.5t-43.5 -23.5t-57.5 -12q-56 0 -88.5 34t-32.5 90q0 52 32.5 87.5t84.5 35.5q33 0 73.5 -22t58.5 -37.5
t58 -51.5zM351 251q4 -3 20.5 -18.5t23.5 -21.5t22.5 -19t26 -19t25 -14t28.5 -11t28 -3q48 0 75.5 29t27.5 78q0 45 -27 75t-70 30q-29 0 -68 -21.5t-57 -36.5t-55 -48zM327 250q-37 33 -55.5 49t-56.5 37t-69 21q-43 0 -69.5 -31t-26.5 -74q0 -47 27 -76.5t74 -29.5
q13 0 26.5 3t24 6.5t24 12t21.5 13.5t22.5 17t19.5 16.5t20 18.5t18 17z" />
    <glyph glyph-name="approxequal" unicode="&#x2248;" horiz-adv-x="600" 
d="M539 222q-13 -43 -42.5 -72t-71.5 -29q-33 0 -139 37q-3 1 -35.5 13.5t-59.5 19.5t-47 7q-32 0 -57.5 -25t-37.5 -58h-18q15 46 44.5 73.5t68.5 27.5q15 0 37.5 -5t39.5 -10.5t41.5 -14.5t33.5 -12q99 -35 129 -35q34 0 59 24t37 59h18zM539 388q-13 -43 -42.5 -72
t-71.5 -29q-28 0 -139 36q-4 1 -27 10t-38.5 14.5t-38 11t-38.5 5.5q-32 0 -57.5 -25t-37.5 -58h-18q15 45 44.5 72.5t68.5 27.5q15 0 37.5 -5t39.5 -10.5t41.5 -14.5t33.5 -12q7 -2 29 -9.5t36 -12t32.5 -9t31.5 -4.5q34 0 59 24.5t37 59.5h18z" />
    <glyph glyph-name="notequal" unicode="&#x2260;" horiz-adv-x="600" 
d="M531 147h-295l-73 -137l-16 9l69 128h-183v19h193l93 174h-286v19h296l72 134l15 -8l-67 -126h182v-19h-192l-93 -174h285v-19z" />
    <glyph glyph-name="lessequal" unicode="&#x2264;" horiz-adv-x="600" 
d="M37 260v18l482 207v-19l-461 -197l461 -195v-19zM37 15h482v-18h-482v18z" />
    <glyph glyph-name="greaterequal" unicode="&#x2265;" horiz-adv-x="600" 
d="M534 260l-482 -205v19l461 195l-461 197v19l482 -207v-18zM534 15v-18h-482v18h482z" />
    <glyph glyph-name="hyphenminus" unicode="&#xe000;" horiz-adv-x="333" 
d="M246 276l-3 -18h-184l4 18h183z" />
    <glyph glyph-name="nbspace" unicode="&#xe001;" horiz-adv-x="278" 
 />
    </font>
</defs>
</svg>
